<svg xmlns="http://www.w3.org/2000/svg" xmlns:xlink="http://www.w3.org/1999/xlink" version="1.1" id="Layer_1" x="0px" y="0px" enable-background="new 0 0 1500 1500" xml:space="preserve" viewBox="403.91 428.59 689.16 672.34">
<polygon fill="#FFFFFF" stroke="#000000" stroke-miterlimit="10" points="520,480 454,558 450,971.063 463,1038 610,1071.814   836.607,1065 964.896,1055.851 1031,952.727 1031,487.209 955,473 "/>
<g>
	<path fill-rule="evenodd" clip-rule="evenodd" fill="#40DEA3" d="M587.677,438.398c5.166-7.504,12.575-9.427,21.281-9.417   c94.131,0.103,188.261,0.071,282.392-0.014c8.049-0.007,14.525,2.783,19.596,8.967c-1.247,12.282,5.07,19.49,17.594,19.967   c3.828,0.146,7.669,0.202,11.498,0.087c20.852-0.627,40.219,4.531,58.17,15.013c41.774,24.393,65.406,60.271,65.607,109.136   c0.491,119.323,0.086,238.649,0.148,357.975c0.009,15.375-0.462,30.607-5.379,45.376c-10.449,31.384-29.702,55.571-58.877,71.411   c-15.328,8.322-31.424,14.371-49.31,14.295c-14.761-0.063-29.523,0.404-44.286,0.422c-87.325,0.107-174.651,0.171-261.978,0.207   c-29.981,0.012-59.963-0.01-89.944-0.194c-10.8-0.066-21.772,0.311-32.155-3.244c-30.569-10.466-54.838-29.044-71.228-57.147   c-11.441-19.617-17.614-40.786-17.541-63.687c0.112-34.99,0.011-69.982,0.001-104.975c-0.022-88.33-0.126-176.66,0.074-264.99   c0.019-8.063,1.075-16.375,3.211-24.142c11.539-41.963,38.617-70.643,77.791-88.234c10.315-4.632,21.394-6.8,33.031-6.415   c9.197,0.304,18.511,1.324,27.704-1.464C584.734,454.403,588.953,448.579,587.677,438.398z M900.93,493.286   c-3.018-1.905-5.822-4.684-9.109-5.48c-3.645-0.883-8.02-0.813-11.553,0.387c-5.037,1.711-5.734,6.901-6.166,11.594   c-0.348,3.794-0.301,7.625-0.428,11.439c-0.777-0.58-1.67-1.053-2.31-1.756c-3.599-3.953-8.309-4.141-12.84-3.038   c-4.718,1.148-6.814,5.586-7.145,9.786c-0.839,10.67-0.901,21.402-1.226,32.111c-0.139,4.59-0.156,9.184-0.229,13.776   c-10.836-3.614-21.555-7.277-33.301-7.228c-46.613,0.193-93.229-0.021-139.843,0.086c-17.995,0.042-34.072,5.528-47.366,18.101   c-0.439,0.416-1.077,0.622-1.688,0.962c-1.175-2.25-2.504-4.179-3.246-6.313c-5.479-15.763-15.048-29.061-25.513-41.708   c-4.271-5.162-9.687-9.378-14.581-14.024c-3.794-4.792-7.085-10.122-11.496-14.257c-7.35-6.891-15.976-11.803-26.374-12.803   c-19.05-1.832-32.53,7.276-42.906,22.073C495.704,518.277,489,526,484.333,549.667c-2.8,19.88-6,27.333-5.533,58.392   c0.331,22.027,3.454,39.593,13.357,59.662c-5.594,7.104-8.666,15.545-9.913,24.136c-2.694,18.561-4.382,37.275-6.192,55.955   c-1.074,11.089-1.451,22.243-2.408,33.345c-1.039,12.047-2.647,24.049-3.535,36.104c-1.038,14.09-1.489,28.221-2.346,42.325   c-0.403,6.634-1.139,13.249-1.762,19.868c-0.647,6.869-1.485,13.725-1.98,20.604c-0.955,13.263-1.746,26.537-2.569,39.81   c-0.926,14.938-2.432,29.873-2.531,44.817c-0.087,13.17,3.735,25.809,11.181,36.746c17.341,25.471,41.169,39.056,72.569,37.712   c17.439-0.746,32.283-8.284,45.198-19.198c6.324-5.344,11.129-12.624,16.025-19.456c2.344-3.271,4.661-4.432,8.57-4.425   c84.797,0.142,169.594,0.182,254.391,0.139c4.152-0.002,6.717,1.623,9.11,4.861c3.941,5.333,7.872,10.843,12.691,15.327   c23.23,21.616,49.991,28.74,80.503,18.094c30.12-10.511,52.261-42.251,51.061-73.964c-0.251-6.644-0.683-13.285-1.205-19.913   c-1.007-12.759-2.165-25.505-3.211-38.261c-1.971-24.033-3.935-48.066-5.843-72.104c-0.829-10.441-1.433-20.901-2.281-31.341   c-1.507-18.544-3.125-37.077-4.689-55.616c-1.244-14.745-2.401-29.497-3.753-44.232c-0.512-5.578-1.616-11.101-2.145-16.677   c-0.292-3.091,0.049-6.243,0.104-9.367c3.336-3.112,7.376-5.745,9.884-9.421c10.468-15.346,17.405-31.942,17.267-51.042   c-0.267-36.594-0.202-73.191-0.282-109.787c-0.004-1.663,0.078-3.345-0.135-4.984c-0.721-5.559-3.56-9.638-8.913-11.575   c-4.975-1.8-9.078-0.119-12.493,3.687c-0.43,0.479-1.022,0.812-1.54,1.213c-0.243-3.417-1.054-6.91-0.616-10.238   c0.994-7.573-6.655-14.044-14.148-13.98c-6.666,0.058-10.029,4.237-13.12,9.112c-1.123-1.396-2.155-2.877-3.386-4.171   c-4.32-4.546-10.1-5.007-14.99-1.113c-1.618,1.288-2.938,2.951-4.393,4.443c-0.563-0.56-1.191-1.067-1.678-1.687   c-7.193-9.168-17.771-8.563-23.762,1.364c-0.248,0.41-0.633,0.736-0.953,1.101c-0.701-0.895-1.438-1.763-2.098-2.688   c-3.963-5.564-10.408-6.38-16.514-2.815C903.819,491.308,902.393,492.329,900.93,493.286z"/>
	<path fill-rule="evenodd" clip-rule="evenodd" fill="#023851" d="M587.677,438.398c1.276,10.181-2.942,16.005-12.599,18.934   c-9.193,2.789-18.507,1.769-27.704,1.464c-11.637-0.386-22.715,1.783-33.031,6.415c-39.174,17.591-66.252,46.271-77.791,88.234   c-2.136,7.767-3.192,16.078-3.211,24.142c-0.2,88.33-0.096,176.66-0.074,264.99c0.009,34.992,0.111,69.984-0.001,104.975   c-0.073,22.9,6.1,44.069,17.541,63.687c16.39,28.104,40.659,46.682,71.228,57.147c10.383,3.555,21.355,3.178,32.155,3.244   c29.981,0.185,59.963,0.206,89.944,0.194c87.326-0.036,174.652-0.1,261.978-0.207c14.763-0.018,29.525-0.484,44.286-0.422   c17.886,0.076,33.981-5.973,49.31-14.295c29.175-15.84,48.428-40.027,58.877-71.411c4.917-14.769,5.388-30.001,5.379-45.376   c-0.063-119.325,0.343-238.652-0.148-357.975c-0.201-48.866-23.833-84.743-65.607-109.136   c-17.951-10.482-37.318-15.64-58.17-15.013c-3.829,0.115-7.67,0.06-11.498-0.087c-12.523-0.478-18.841-7.686-17.594-19.967   c2.643-6.091,7.761-8.385,13.92-8.847c38.115-2.86,72.91,6.531,103.899,28.968c32.026,23.188,52.089,54.459,61.238,92.821   c1.115,4.676,1.959,9.417,2.929,14.127c0.04,129.784,0.069,259.569,0.138,389.352c0.007,13.237-2.16,26.255-5.873,38.77   c-3.712,12.512-9.583,24.347-16.703,35.424c-24.266,37.752-57.934,62.012-102.188,70.889c-5.021,1.008-10.262,1.279-15.402,1.284   c-129.79,0.116-259.581,0.164-389.371,0.178c-10.153,0.001-20.355,0.237-30.449-0.631c-17.89-1.538-34.073-8.514-49.61-17.165   c-20.289-11.298-36.593-27.014-50.51-45.373c-6.469-8.534-11.682-17.867-15.57-27.797c-1.011-2.582-3.262-3.875-3.983-6.94   c-3.895-16.55-9.383-32.714-9.288-50.051c0.171-31.155,0.044-62.313,0.026-93.47c-0.001-1.825-0.146-3.65-0.225-5.476   c-0.004-7.331-0.008-14.663-0.011-21.993c-0.002-1.965-0.003-3.93-0.005-5.894c0.082-23.978,0.226-47.954,0.233-71.931   c0.018-57.124,0.042-114.249-0.074-171.373c-0.074-36.086,11.924-67.737,34.529-95.572c21.151-26.045,47.67-44.275,80.013-53.369   c9.343-2.627,19.226-3.641,28.94-4.548c8.096-0.756,16.308-0.363,24.467-0.312C579.018,429.05,584.635,431.634,587.677,438.398z"/>
	<path fill-rule="evenodd" clip-rule="evenodd" fill="#F9FCFD" d="M403.91,832.004c0.003,7.33,0.007,14.662,0.011,21.993"/>
	<path fill-rule="evenodd" clip-rule="evenodd" fill="#023851" d="M997.198,693.009c-0.056,3.125-0.396,6.276-0.104,9.367   c0.528,5.577,1.633,11.1,2.145,16.677c1.352,14.735,2.509,29.487,3.753,44.232c1.564,18.539,3.183,37.072,4.689,55.616   c0.849,10.439,1.452,20.899,2.281,31.341c1.908,24.037,3.872,48.07,5.843,72.104c1.046,12.756,2.204,25.502,3.211,38.261   c0.522,6.628,0.954,13.27,1.205,19.913c1.2,31.713-20.94,63.453-51.061,73.964c-30.512,10.646-57.272,3.522-80.503-18.094   c-4.819-4.484-8.75-9.994-12.691-15.327c-2.394-3.238-4.958-4.863-9.11-4.861c-84.797,0.043-169.594,0.003-254.391-0.139   c-3.909-0.007-6.226,1.154-8.57,4.425c-4.896,6.832-9.701,14.112-16.025,19.456c-12.915,10.914-27.759,18.452-45.198,19.198   c-31.399,1.344-55.228-12.241-72.569-37.712c-7.446-10.938-11.268-23.576-11.181-36.746c0.099-14.944,1.605-29.88,2.531-44.817   c0.823-13.272,1.614-26.547,2.569-39.81c0.495-6.879,1.333-13.734,1.98-20.604c0.623-6.619,1.359-13.234,1.762-19.868   c0.857-14.104,1.308-28.235,2.346-42.325c0.887-12.055,2.496-24.057,3.535-36.104c0.958-11.102,1.334-22.256,2.408-33.345   c1.81-18.68,3.498-37.394,6.192-55.955c1.247-8.591,4.319-17.032,9.913-24.136c5.961,10.821,13.024,20.834,22.099,29.417   c-3.734,3.988-5.025,8.539-5.367,13.459c-0.579,8.304-1.2,16.605-1.77,24.91c-1.482,21.597-2.876,43.2-4.435,64.792   c-1.822,25.234-3.759,50.462-5.69,75.689c-1.182,15.438-2.438,30.869-3.674,46.303c-1.301,16.259-2.617,32.516-3.927,48.772   c-0.083,1.638-0.166,3.274-0.249,4.911c-0.011,2.346-0.021,4.692-0.032,7.039c0.25,2.188,0.5,4.376,0.75,6.564   c0.202,1.202,0.404,2.404,0.605,3.606c5.217,23.38,30.251,41.111,56.992,34.989c9.456-2.164,17.654-6.212,24.412-14.403   c6.998-8.481,10.938-17.273,10.984-27.865c0.03-6.909-0.825-13.833-1.493-20.729c-0.64-6.614-1.66-13.19-2.322-19.803   c-1.872-18.683-3.788-37.362-5.427-56.066c-3.005-34.283-5.903-68.576-8.695-102.878c-1.862-22.879-3.43-45.782-5.204-68.669   c-0.453-5.847-2.823-10.552-8.71-12.776c-0.659-0.332-1.317-0.663-1.976-0.994c1.285-0.769,2.498-1.719,3.87-2.272   c3.673-1.482,7.729-2.275,11.057-4.292c5.225-3.167,10.291-6.763,14.84-10.83c4.547-4.065,8.844-8.597,12.391-13.541   c3.552-4.95,6.047-10.66,8.998-16.041c2.836-5.173,3.09-11.104,4.267-16.651c4.36-20.552-0.23-40.171-7.81-59.283   c-0.38-4.604-0.9-9.203-1.116-13.815c-0.89-19.002-2.678-37.81-11.137-55.281c4.895,4.646,10.31,8.862,14.581,14.024   c10.465,12.647,20.035,25.945,25.513,41.708c0.742,2.133,2.071,4.063,3.246,6.313c0.611-0.341,1.248-0.547,1.688-0.962   c13.294-12.573,29.372-18.06,47.366-18.101c46.614-0.107,93.229,0.107,139.843-0.086c11.746-0.049,22.465,3.614,33.301,7.228   c0.388,1.893,1.1,3.784,1.112,5.679c0.132,19.493-0.267,38.999,0.309,58.476c0.688,23.346,8.633,43.918,25.796,60.352   c2.534,2.428,5.453,4.454,8.723,7.09c0-4.11,0.146-7.109-0.027-10.089c-0.627-10.739,2.691-20.421,8.312-29.277   c12.654-19.939,30.993-30.025,54.462-26.88c23.89,3.201,39.998,17.519,46.666,40.803   C997.509,676.053,996.646,684.734,997.198,693.009z M836.105,681.929c-0.031,0.223-0.062,0.446-0.092,0.669   c0.197-0.041,0.396-0.081,0.594-0.121c-0.201-0.16-0.404-0.32-0.605-0.48c-0.103-0.482-0.096-1.025-0.322-1.438   c-10.551-19.195-13.371-40.1-13.805-61.578c-0.23-11.412-0.789-22.817-1.22-34.779c-6.121,0-11.891,0-17.66,0   c-1.493-0.067-2.987-0.189-4.48-0.192c-39.165-0.055-78.333,0.179-117.493-0.289c-13.939-0.167-25.398,4.253-35.032,13.983   c-3.161,3.193-6.35,6.41-9.071,9.963c-1.256,1.64-2.071,4.148-1.971,6.209c0.553,11.357,0.37,22.604-2.096,33.791   c-5.496,24.937-18.161,45.277-39.041,60.013c-4.348,3.069-5.03,5.966-4.57,10.602c2.696,27.172,5.153,54.368,7.728,81.554   c2.719,28.716,12.095,54.713,30.986,76.979c22.45,26.462,50.021,44.799,83.71,53.634c0.695,0.183,19.342,3.289,28.109,3.844   c29.976,1.897,57.958-4.601,82.997-21.123c33.803-22.304,56.245-52.654,62.654-93.538c4.629-29.531,1.9-57.926-12.912-84.469   c-1.174-2.104-2.603-4.066-3.922-6.108c-7.17,4.277-13.854,8.265-20.537,12.252c-1.078-1.065-2.458-1.955-3.186-3.221   c-7.841-13.632-18.016-25.121-30.91-34.169c-19.539-13.712-39.275-19.157-59.934-16.339c3.928,0.713,7.504,1.087,10.924,2.03   c15.698,4.329,30.318,11.046,43.047,21.271c33.231,26.695,49.922,71.332,28.937,119.172   c-18.749,42.741-61.656,66.073-108.152,59.823c-20.229-2.721-38.632-10.426-54.16-23.838c-18.113-15.645-31.65-34.6-38.145-57.912   c-3.327-11.941-2.506-22.791-2.783-36.631c-0.192-2.325-0.526-7.575,0.275-14.404c3.008-20.374,10.433-38.784,24.007-54.515   c34.478-39.958,77.609-54.376,128.973-42.765c11.355,2.567,22.067,7.976,33.075,12.076   C825.383,675.233,830.744,678.581,836.105,681.929z M680.152,952.727c-1.616-0.853-3.191-1.797-4.854-2.545   c-27.178-12.203-50.453-29.538-69.353-52.646c-0.466-0.569-1.076-1.021-2.226-2.096c0.227,2.832,0.334,4.792,0.547,6.74   c2.894,26.487,5.834,52.97,8.677,79.463c0.552,5.146-0.034,4.991,5.616,4.987c34.665-0.023,69.33,0.018,103.995-0.064   c7.813-0.019,15.624-0.438,23.436-0.674c1.48,0.102,2.96,0.287,4.44,0.289c23.773,0.025,47.544,0.028,71.317,0.033   c14.253,0.003,28.505,0,43.128,0c1.676-8.221,1.211-16.378,2.692-24.332c1.516-8.143,2.114-16.467,2.925-24.73   c0.816-8.326,1.401-16.674,2.168-25.998c-11.483,13.467-24.83,23.17-39.331,31.393c-2.722,1.509-5.444,3.018-8.166,4.526   c-6.269,2.558-12.493,5.23-18.815,7.648c-13.775,5.269-28.111,8.767-42.695,10.106c-10.82,0.994-21.87-0.045-32.789-0.673   c-16.821-0.968-32.963-5.337-48.866-10.665c-0.471-0.149-0.941-0.299-1.412-0.447C680.441,952.938,680.296,952.832,680.152,952.727   z M897.439,969.074c-0.335,3.809-0.792,7.611-0.986,11.426c-1.459,28.662,25.119,52.413,53.408,48.239   c26.377-3.892,42.623-27.377,41.154-50.349c-0.787-12.311-2.06-24.592-3.1-36.887c-1.457-17.23-2.911-34.46-4.35-51.691   c-2.531-30.301-5.045-60.602-7.575-90.902c-2.087-24.988-4.177-49.977-6.283-74.964c-1.257-14.91-2.568-29.814-3.812-44.725   c-0.592-7.094-3.654-12.65-9.846-16.347c-7.221-6.014-15.225-7.178-23.707-3.286c-7.6,3.486-11.589,9.642-12.172,18.051   c-1.268,18.274-2.723,36.537-3.878,54.818c-0.345,5.462-0.323,11.006,0.18,16.452c1.003,10.851,3.35,21.647,3.483,32.486   c0.148,12.089-0.907,24.291-2.61,36.277c-1.796,12.638-5.794,24.976-7.388,37.626c-3.931,31.209-7.036,62.522-10.474,93.793   c-0.234,2.975-0.469,5.949-0.703,8.924c-0.151,1.009-0.304,2.018-0.454,3.027c-0.049,0.643-0.098,1.287-0.146,1.93   C897.934,965.007,897.688,967.041,897.439,969.074z M701.841,766.314c16.582,0.627,30.974-14.761,31.099-31.582   c0.124-16.641-14.447-31.389-31.056-31.151c-16.765,0.239-30.62,13.175-31.477,31.676c-0.363,7.85,3.364,15.79,9.492,21.812   C685.863,762.928,692.865,766.241,701.841,766.314z"/>
	<path fill-rule="evenodd" clip-rule="evenodd" fill="#023851" d="M900.93,493.286c0.305,26.586,0.712,53.172,0.785,79.759   c0.009,3.297-1.149,6.963-2.846,9.817c-2.732,4.599-7.301,6.865-12.783,5.871c-5.703-1.034-9.662-4.413-11.071-10.169   c-0.586-2.393-0.742-4.938-0.758-7.416c-0.11-17.817-0.123-35.634-0.204-53.452c-0.01-2.157-0.248-4.313-0.379-6.47   c0.127-3.814,0.08-7.645,0.428-11.439c0.432-4.693,1.129-9.882,6.166-11.594c3.533-1.2,7.908-1.271,11.553-0.387   C895.107,488.603,897.912,491.381,900.93,493.286z"/>
	<path fill-rule="evenodd" clip-rule="evenodd" fill="#023851" d="M1000.985,511.098c-0.231,4.97-0.67,9.941-0.657,14.911   c0.04,15.961,0.396,31.923,0.334,47.884c-0.04,10.26-8.801,16.895-18.117,14.138c-5.854-1.732-9.492-7.026-9.51-14.221   c-0.049-19.954-0.02-39.908-0.008-59.861c0.003-5.985,0.048-11.97,0.073-17.956c3.091-4.875,6.454-9.055,13.12-9.112   c7.493-0.064,15.143,6.407,14.148,13.98C999.932,504.188,1000.742,507.681,1000.985,511.098z"/>
	<path fill-rule="evenodd" clip-rule="evenodd" fill="#023851" d="M950.332,495.152c0.164,1.815,0.467,3.629,0.471,5.444   c0.05,24.273,0.086,48.547,0.059,72.82c-0.01,8.208-4.041,13.574-11.049,15.055c-7.424,1.568-14.584-3.292-15.84-10.761   c-0.11-0.654-0.189-1.323-0.188-1.984c0.046-26.599,0.101-53.197,0.155-79.795c0.32-0.365,0.705-0.691,0.953-1.101   c5.99-9.927,16.568-10.532,23.762-1.364C949.141,494.084,949.77,494.592,950.332,495.152z"/>
	<path fill-rule="evenodd" clip-rule="evenodd" fill="#CCE1E5" d="M681.321,913.356c-11.338-7.884-20.243-18.335-28.799-28.965   c-4.804-5.969-8.455-12.866-12.625-19.346c0.371-0.31,0.742-0.62,1.112-0.931c1.74,1.887,3.417,3.838,5.233,5.648   c4.325,4.314,8.272,9.176,13.168,12.717c11.389,8.237,23.021,16.266,36.668,20.511c10.857,3.376,21.789,6.455,33.335,6.31   c7.683-0.098,15.521,0.889,23.005-0.341c6.743-1.107,32.106-7.938,37.748-10.627c15.304-7.295,27.696-19.052,39.073-31.653   c7.447-8.248,13.064-17.631,17.828-27.111c5.09-10.131,7.716-21.822,9.619-33.135c1.69-10.053,1.826-20.594,0.98-30.781   c-0.859-10.379-3.469-20.664-8.396-30.12c-0.664-1.274-0.824-2.812-1.217-4.227c6.684-3.987,13.367-7.975,20.537-12.252   c1.319,2.042,2.748,4.004,3.922,6.108c14.813,26.543,17.541,54.938,12.912,84.469c-6.409,40.884-28.852,71.234-62.654,93.538   c-25.039,16.522-53.021,23.021-82.997,21.123C731.008,933.737,702.25,926.75,681.321,913.356z"/>
	<path fill-rule="evenodd" clip-rule="evenodd" fill="#CCE1E5" d="M897.439,969.074c2,6.248,3.298,12.85,6.225,18.626   c2.223,4.385,6.02,8.383,10.001,11.374c6.899,5.183,15.107,7.886,23.798,6.755c5.641-0.733,11.592-2.021,16.525-4.685   c15.465-8.35,19.924-20.25,19.879-34.363c-0.03-9.898-1.281-19.789-1.797-29.692c-0.307-5.886-0.086-11.798-0.391-17.683   c-0.313-6.079-1.035-12.136-1.469-18.211c-0.387-5.447-0.682-10.904-0.91-16.361c-0.191-4.576-0.118-9.166-0.357-13.74   c-0.593-11.339-1.349-22.67-1.944-34.009c-0.728-13.868-1.294-27.745-2.056-41.61c-0.541-9.867-1.242-19.727-1.961-29.583   c-0.574-7.864-1.452-15.71-1.877-23.582c-0.307-5.699,0.011-11.428-0.134-17.139c-0.252-9.909-0.62-19.814-0.987-29.72   c-0.295-7.947-0.434-15.91-1.113-23.825c-0.256-2.976-1.841-5.838-2.82-8.752c6.191,3.696,9.254,9.252,9.846,16.347   c1.243,14.911,2.555,29.815,3.812,44.725c2.106,24.987,4.196,49.976,6.283,74.964c2.53,30.301,5.044,60.602,7.575,90.902   c1.438,17.231,2.893,34.461,4.35,51.691c1.04,12.295,2.313,24.576,3.1,36.887c1.469,22.972-14.777,46.457-41.154,50.349   c-28.289,4.174-54.867-19.577-53.408-48.239C896.647,976.686,897.104,972.883,897.439,969.074z"/>
	<path fill-rule="evenodd" clip-rule="evenodd" fill="#CCE1E5" d="M562.305,982.457c2.73-7.533,4.055-14.99,2.965-23.254   c-1.333-10.117-0.761-20.472-1.329-30.706c-0.824-14.834-1.966-29.649-2.901-44.478c-0.438-6.947-0.818-13.901-1.023-20.857   c-0.307-10.374,0.517-20.885-0.888-31.096c-1.665-12.1-0.872-24.051-0.749-36.084c0.021-2.058-1.563-4.23-1.257-6.17   c1.312-8.318-1.287-16.377-1.221-24.608c0.044-5.507-1.051-11.016-1.178-16.534c-0.188-8.163,0.529-16.373-0.079-24.492   c-0.483-6.453-2.374-12.8-3.64-19.194c5.887,2.224,8.258,6.929,8.71,12.776c1.773,22.887,3.342,45.791,5.204,68.669   c2.792,34.302,5.689,68.595,8.695,102.878c1.64,18.704,3.556,37.384,5.427,56.066c0.662,6.612,1.682,13.188,2.322,19.803   c0.668,6.896,1.522,13.82,1.493,20.729c-0.045,10.592-3.986,19.384-10.984,27.865c-6.758,8.191-14.957,12.239-24.412,14.403   c-26.741,6.122-51.775-11.609-56.992-34.989c-1.074-5.56-1.843-7.31-1.323-14.352c3.898,7.025,11.313,16.362,17.999,20.815   c2.668,1.777,4.994,4.597,7.884,5.326c1.879,0.475,13.207,0.086,16.427,0.148c8.332,0.16,15.251-3.035,21.442-8.404   C554.114,995.663,560.875,986.402,562.305,982.457z"/>
	<path fill-rule="evenodd" clip-rule="evenodd" fill="#CCE1E5" d="M872.564,911.154c-0.773,9.324-1.364,17.672-2.188,25.998   c-0.818,8.264-1.423,16.588-2.952,24.73c-1.495,7.954-1.025,16.111-2.717,24.332c-14.758,0-29.141,0.003-43.524,0   c-23.99-0.005-47.979-0.008-71.971-0.033c-1.494-0.002-2.987-0.188-4.48-0.289c-0.682-0.456-1.31-1.18-2.055-1.328   c-7.276-1.447-13.175-6.158-20.41-8.032c-6.394-1.657-12.262-5.417-18.252-8.46c-5.612-2.852-11.158-5.852-16.578-9.044   c-2.613-1.54-5.568-4.813-7.985-6.678c16.049,5.328,33.039,10.837,50.014,11.805c11.019,0.628,22.17,1.667,33.089,0.673   c14.718-1.34,29.186-4.838,43.088-10.106C812.023,952.304,860.976,924.621,872.564,911.154z"/>
	<path fill-rule="evenodd" clip-rule="evenodd" fill="#F9FCFD" d="M701.841,766.314c-8.976-0.073-15.978-3.387-21.941-9.246   c-6.128-6.021-9.855-13.962-9.492-21.812c0.856-18.501,14.712-31.437,31.477-31.676c16.608-0.237,31.18,14.51,31.056,31.151   C732.815,751.554,718.423,766.941,701.841,766.314z"/>
	<path fill-rule="evenodd" clip-rule="evenodd" fill="#CCE1E5" d="M549.03,703.989c-1.421-0.391-2.843-0.782-5.157-1.418   c2.403-2.002,4.461-3.467,6.226-5.227c10.688-10.656,20.278-22.185,27.033-35.788c3.525-7.1,7.358-14.187,9.702-21.7   c3.08-9.873,5.314-20.08,7.007-30.292c1.557-9.392,1.915-18.982,2.801-28.485c7.579,19.112,12.169,38.731,7.81,59.283   c-1.177,5.547-1.431,11.478-4.267,16.651c-2.95,5.381-5.445,11.091-8.998,16.041c-3.547,4.944-7.844,9.476-12.391,13.541   c-4.549,4.067-9.615,7.663-14.84,10.83c-3.328,2.017-7.383,2.811-11.057,4.292C551.527,702.27,550.315,703.22,549.03,703.989z"/>
	<path fill-rule="evenodd" clip-rule="evenodd" fill="#CCE1E5" d="M820.022,671.885c-1.896-4.376-3.905-8.709-5.669-13.138   c-5.742-14.42-8.48-29.489-9.353-44.924c-0.504-8.914-0.813-17.839-1.267-26.756c-0.049-0.964-0.483-1.909-0.739-2.863   c5.77,0,11.539,0,17.66,0c0.431,11.961,0.989,23.367,1.22,34.779c0.434,21.478,3.254,42.382,13.805,61.578   c0.227,0.414,0.22,0.956,0.322,1.438l0.104-0.068C830.744,678.581,825.383,675.233,820.022,671.885z"/>
	<path fill-rule="evenodd" clip-rule="evenodd" fill="#F3F7F8" d="M899.485,949.092c-0.234,2.975-0.469,5.949-0.703,8.924   C899.017,955.041,899.251,952.066,899.485,949.092z"/>
	<path fill-rule="evenodd" clip-rule="evenodd" fill="#F3F7F8" d="M489.113,983.014c0.25,2.188,0.5,4.376,0.75,6.564   C489.613,987.39,489.363,985.201,489.113,983.014z"/>
	<path fill-rule="evenodd" clip-rule="evenodd" fill="#F3F7F8" d="M489.394,971.063c-0.083,1.638-0.166,3.274-0.249,4.911   C489.229,974.338,489.312,972.701,489.394,971.063z"/>
	<path fill-rule="evenodd" clip-rule="evenodd" fill="#F3F7F8" d="M898.328,961.043c-0.049,0.643-0.098,1.287-0.146,1.93   C898.23,962.33,898.279,961.686,898.328,961.043z"/>
	<path fill-rule="evenodd" clip-rule="evenodd" fill="#F3F7F8" d="M836.002,681.998c0.201,0.16,0.404,0.32,0.605,0.48   c-0.197,0.041-0.396,0.081-0.594,0.121c0.03-0.223,0.061-0.446,0.092-0.669L836.002,681.998z"/>
	<path fill-rule="evenodd" clip-rule="evenodd" fill="#F3F7F8" d="M680.586,953.043c-0.167-0.078-0.312-0.184-0.435-0.316   C680.296,952.832,680.441,952.938,680.586,953.043z"/>
	<path fill-rule="evenodd" clip-rule="evenodd" fill="#023851" d="M575.026,591.46c-0.099,14.71-1.674,29.35-7.18,43.525   c-2.481,6.388-6.626,12.546-11.102,18.368c-2.355,3.062-6.596,5.708-10.791,7.596c-7.155,3.219-14.643,2.625-21.411-1.126   c-7.243-4.015-11.745-9.477-14.907-15.553c-5.694-10.939-8.462-22.325-10.082-33.935c-2.258-16.198-1.317-32.351,1.633-48.388   c1.919-10.438,4.869-20.948,12.029-30.283c3.139-4.094,7.576-8.226,12.86-10.761c8.353-4.007,18.406-2.195,25.911,3.246   c7.821,5.669,11.639,12.873,14.503,20.389C572.337,559.883,575.052,575.541,575.026,591.46z"/>
</g>
</svg>